%TF.GenerationSoftware,KiCad,Pcbnew,8.0.8*%
%TF.CreationDate,2025-03-13T01:12:54-05:00*%
%TF.ProjectId,BackTracker,4261636b-5472-4616-936b-65722e6b6963,rev?*%
%TF.SameCoordinates,Original*%
%TF.FileFunction,Copper,L2,Bot*%
%TF.FilePolarity,Positive*%
%FSLAX46Y46*%
G04 Gerber Fmt 4.6, Leading zero omitted, Abs format (unit mm)*
G04 Created by KiCad (PCBNEW 8.0.8) date 2025-03-13 01:12:54*
%MOMM*%
%LPD*%
G01*
G04 APERTURE LIST*
%TA.AperFunction,ComponentPad*%
%ADD10R,1.725000X1.725000*%
%TD*%
%TA.AperFunction,ComponentPad*%
%ADD11C,1.725000*%
%TD*%
%TA.AperFunction,HeatsinkPad*%
%ADD12C,0.600000*%
%TD*%
%TA.AperFunction,ViaPad*%
%ADD13C,0.600000*%
%TD*%
%TA.AperFunction,Conductor*%
%ADD14C,0.200000*%
%TD*%
G04 APERTURE END LIST*
D10*
%TO.P,U2,1,VCC*%
%TO.N,Net-(U2-VCC)*%
X94361000Y-70612000D03*
D11*
%TO.P,U2,2,RST*%
%TO.N,Net-(U1-IO22)*%
X96901000Y-70612000D03*
%TO.P,U2,3,GND*%
%TO.N,GND*%
X99441000Y-70612000D03*
%TO.P,U2,4,IRQ*%
%TO.N,unconnected-(U2-IRQ-Pad4)*%
X101981000Y-70612000D03*
%TO.P,U2,5,MISO/SCL/TX*%
%TO.N,Net-(U1-IO19)*%
X104521000Y-70612000D03*
%TO.P,U2,6,MOSI*%
%TO.N,Net-(U1-IO23)*%
X107061000Y-70612000D03*
%TO.P,U2,7,SCK*%
%TO.N,Net-(U1-IO18)*%
X109601000Y-70612000D03*
%TO.P,U2,8,SS/SDA/RX*%
%TO.N,Net-(U1-IO5)*%
X112141000Y-70612000D03*
%TD*%
D12*
%TO.P,U1,39,GND*%
%TO.N,GND*%
X104027000Y-43218000D03*
X104027000Y-41818000D03*
X103327000Y-43918000D03*
X103327000Y-42518000D03*
X103327000Y-41118000D03*
X102602000Y-43218000D03*
X102602000Y-41818000D03*
X101927000Y-43918000D03*
X101927000Y-42518000D03*
X101927000Y-41118000D03*
X101227000Y-43218000D03*
X101227000Y-41818000D03*
%TD*%
D13*
%TO.N,*%
X91948000Y-51689000D03*
X123698000Y-39243000D03*
X128270000Y-62992000D03*
X127381000Y-107696000D03*
X80391000Y-107061000D03*
X101092000Y-64770000D03*
X106172000Y-65532000D03*
X117856000Y-46482000D03*
X90043000Y-45974000D03*
X80645000Y-43561000D03*
X80137000Y-76073000D03*
X125984000Y-74295000D03*
X122555000Y-64516000D03*
X119507000Y-48260000D03*
X80645000Y-57658000D03*
%TO.N,Net-(U1-IO19)*%
X115570000Y-52324000D03*
X114935000Y-55499000D03*
X111887000Y-55626000D03*
X114300000Y-40513000D03*
X114173000Y-43688000D03*
X104902000Y-62865000D03*
%TO.N,Net-(U1-IO18)*%
X114335000Y-44958000D03*
X122682000Y-35179000D03*
X112903000Y-67437000D03*
X111252000Y-67437000D03*
%TO.N,Net-(U1-IO23)*%
X116332000Y-63119000D03*
X112776000Y-64516000D03*
X111252000Y-64516000D03*
X115570000Y-36449000D03*
%TO.N,Net-(U1-IO5)*%
X114300000Y-46228000D03*
X114127002Y-61930002D03*
%TO.N,Net-(U3-VDDIO)*%
X99441000Y-59944000D03*
X96266000Y-59944000D03*
%TO.N,Net-(U3-VDD)*%
X120523000Y-59944000D03*
X120523000Y-58582000D03*
X96301000Y-61087000D03*
X99187000Y-61087000D03*
X122301000Y-56515000D03*
X124206000Y-56515000D03*
X121320000Y-38446000D03*
X121320000Y-36322000D03*
%TO.N,Net-(U3-VDDIO)*%
X118237000Y-57820000D03*
X118237000Y-59182000D03*
%TO.N,Net-(U1-IO21)*%
X115911935Y-54608594D03*
X115154735Y-53668735D03*
%TO.N,Net-(U1-IO26)*%
X101198765Y-56494765D03*
X97409000Y-55245000D03*
%TO.N,Net-(U1-IO22)*%
X96901000Y-57531000D03*
X99314000Y-57531000D03*
%TD*%
D14*
%TO.N,Net-(U1-IO19)*%
X111887000Y-57785000D02*
X106680000Y-62992000D01*
X111887000Y-55626000D02*
X111887000Y-57785000D01*
X106680000Y-62992000D02*
X105029000Y-62992000D01*
X105029000Y-62992000D02*
X104902000Y-62865000D01*
X115316000Y-52324000D02*
X114554000Y-53086000D01*
X115570000Y-52324000D02*
X115316000Y-52324000D01*
X114554000Y-53086000D02*
X114554000Y-55118000D01*
X114554000Y-55118000D02*
X114935000Y-55499000D01*
X114173000Y-40640000D02*
X114300000Y-40513000D01*
X114173000Y-43688000D02*
X114173000Y-40640000D01*
%TO.N,Net-(U1-IO18)*%
X114300000Y-44958000D02*
X114046000Y-44958000D01*
X114046000Y-44958000D02*
X114335000Y-44958000D01*
X115824000Y-44958000D02*
X114300000Y-44958000D01*
X114554000Y-38989000D02*
X115697000Y-40132000D01*
X114681000Y-35179000D02*
X114554000Y-35052000D01*
X122682000Y-35179000D02*
X114681000Y-35179000D01*
X114554000Y-35052000D02*
X114554000Y-38989000D01*
X115697000Y-44831000D02*
X115824000Y-44958000D01*
X111252000Y-67437000D02*
X112903000Y-67437000D01*
%TO.N,Net-(U1-IO23)*%
X116511935Y-62939065D02*
X116332000Y-63119000D01*
X116511935Y-37390935D02*
X116511935Y-62939065D01*
X112776000Y-64516000D02*
X111252000Y-64516000D01*
X115570000Y-36449000D02*
X116511935Y-37390935D01*
%TO.N,Net-(U1-IO5)*%
X114127002Y-46400998D02*
X114127002Y-61930002D01*
X114300000Y-46228000D02*
X114127002Y-46400998D01*
X114173000Y-61976000D02*
X114127002Y-61930002D01*
%TO.N,Net-(U3-VDDIO)*%
X99695000Y-59944000D02*
X99441000Y-59944000D01*
X96266000Y-59944000D02*
X99441000Y-59944000D01*
%TO.N,Net-(U3-VDD)*%
X120523000Y-59944000D02*
X120523000Y-58582000D01*
X96301000Y-61087000D02*
X99187000Y-61087000D01*
X99314000Y-61214000D02*
X99187000Y-61087000D01*
X124206000Y-56515000D02*
X122301000Y-56515000D01*
X121320000Y-36322000D02*
X121320000Y-38446000D01*
X121285000Y-38481000D02*
X121320000Y-38446000D01*
%TO.N,Net-(U3-VDDIO)*%
X118329000Y-57820000D02*
X118364000Y-57785000D01*
X118237000Y-57820000D02*
X118329000Y-57820000D01*
X118237000Y-59182000D02*
X118237000Y-57820000D01*
%TO.N,Net-(U1-IO21)*%
X115189000Y-53703000D02*
X115154735Y-53668735D01*
X115189000Y-53885659D02*
X115189000Y-53703000D01*
X115911935Y-54608594D02*
X115189000Y-53885659D01*
%TO.N,Net-(U1-IO26)*%
X98658765Y-56494765D02*
X97409000Y-55245000D01*
X101198765Y-56494765D02*
X98658765Y-56494765D01*
%TO.N,Net-(U1-IO22)*%
X96901000Y-57531000D02*
X99314000Y-57531000D01*
%TO.N,Net-(U1-IO18)*%
X115697000Y-40132000D02*
X115697000Y-44831000D01*
%TD*%
M02*
