%TF.GenerationSoftware,KiCad,Pcbnew,8.0.8*%
%TF.CreationDate,2025-03-13T01:12:54-05:00*%
%TF.ProjectId,BackTracker,4261636b-5472-4616-936b-65722e6b6963,rev?*%
%TF.SameCoordinates,Original*%
%TF.FileFunction,Legend,Top*%
%TF.FilePolarity,Positive*%
%FSLAX46Y46*%
G04 Gerber Fmt 4.6, Leading zero omitted, Abs format (unit mm)*
G04 Created by KiCad (PCBNEW 8.0.8) date 2025-03-13 01:12:54*
%MOMM*%
%LPD*%
G01*
G04 APERTURE LIST*
%ADD10C,0.150000*%
%ADD11C,0.200000*%
%ADD12C,0.127000*%
%ADD13C,0.120000*%
G04 APERTURE END LIST*
D10*
X75057095Y-43888819D02*
X75057095Y-42888819D01*
X75057095Y-43365009D02*
X75628523Y-43365009D01*
X75628523Y-43888819D02*
X75628523Y-42888819D01*
X76628523Y-43888819D02*
X76057095Y-43888819D01*
X76342809Y-43888819D02*
X76342809Y-42888819D01*
X76342809Y-42888819D02*
X76247571Y-43031676D01*
X76247571Y-43031676D02*
X76152333Y-43126914D01*
X76152333Y-43126914D02*
X76057095Y-43174533D01*
X120297095Y-52822819D02*
X120297095Y-53632342D01*
X120297095Y-53632342D02*
X120344714Y-53727580D01*
X120344714Y-53727580D02*
X120392333Y-53775200D01*
X120392333Y-53775200D02*
X120487571Y-53822819D01*
X120487571Y-53822819D02*
X120678047Y-53822819D01*
X120678047Y-53822819D02*
X120773285Y-53775200D01*
X120773285Y-53775200D02*
X120820904Y-53727580D01*
X120820904Y-53727580D02*
X120868523Y-53632342D01*
X120868523Y-53632342D02*
X120868523Y-52822819D01*
X121249476Y-52822819D02*
X121868523Y-52822819D01*
X121868523Y-52822819D02*
X121535190Y-53203771D01*
X121535190Y-53203771D02*
X121678047Y-53203771D01*
X121678047Y-53203771D02*
X121773285Y-53251390D01*
X121773285Y-53251390D02*
X121820904Y-53299009D01*
X121820904Y-53299009D02*
X121868523Y-53394247D01*
X121868523Y-53394247D02*
X121868523Y-53632342D01*
X121868523Y-53632342D02*
X121820904Y-53727580D01*
X121820904Y-53727580D02*
X121773285Y-53775200D01*
X121773285Y-53775200D02*
X121678047Y-53822819D01*
X121678047Y-53822819D02*
X121392333Y-53822819D01*
X121392333Y-53822819D02*
X121297095Y-53775200D01*
X121297095Y-53775200D02*
X121249476Y-53727580D01*
X84974095Y-65941819D02*
X84974095Y-66751342D01*
X84974095Y-66751342D02*
X85021714Y-66846580D01*
X85021714Y-66846580D02*
X85069333Y-66894200D01*
X85069333Y-66894200D02*
X85164571Y-66941819D01*
X85164571Y-66941819D02*
X85355047Y-66941819D01*
X85355047Y-66941819D02*
X85450285Y-66894200D01*
X85450285Y-66894200D02*
X85497904Y-66846580D01*
X85497904Y-66846580D02*
X85545523Y-66751342D01*
X85545523Y-66751342D02*
X85545523Y-65941819D01*
X85974095Y-66037057D02*
X86021714Y-65989438D01*
X86021714Y-65989438D02*
X86116952Y-65941819D01*
X86116952Y-65941819D02*
X86355047Y-65941819D01*
X86355047Y-65941819D02*
X86450285Y-65989438D01*
X86450285Y-65989438D02*
X86497904Y-66037057D01*
X86497904Y-66037057D02*
X86545523Y-66132295D01*
X86545523Y-66132295D02*
X86545523Y-66227533D01*
X86545523Y-66227533D02*
X86497904Y-66370390D01*
X86497904Y-66370390D02*
X85926476Y-66941819D01*
X85926476Y-66941819D02*
X86545523Y-66941819D01*
X125984095Y-43888819D02*
X125984095Y-42888819D01*
X125984095Y-43365009D02*
X126555523Y-43365009D01*
X126555523Y-43888819D02*
X126555523Y-42888819D01*
X127555523Y-43888819D02*
X126984095Y-43888819D01*
X127269809Y-43888819D02*
X127269809Y-42888819D01*
X127269809Y-42888819D02*
X127174571Y-43031676D01*
X127174571Y-43031676D02*
X127079333Y-43126914D01*
X127079333Y-43126914D02*
X126984095Y-43174533D01*
X87860333Y-34744819D02*
X87527000Y-34268628D01*
X87288905Y-34744819D02*
X87288905Y-33744819D01*
X87288905Y-33744819D02*
X87669857Y-33744819D01*
X87669857Y-33744819D02*
X87765095Y-33792438D01*
X87765095Y-33792438D02*
X87812714Y-33840057D01*
X87812714Y-33840057D02*
X87860333Y-33935295D01*
X87860333Y-33935295D02*
X87860333Y-34078152D01*
X87860333Y-34078152D02*
X87812714Y-34173390D01*
X87812714Y-34173390D02*
X87765095Y-34221009D01*
X87765095Y-34221009D02*
X87669857Y-34268628D01*
X87669857Y-34268628D02*
X87288905Y-34268628D01*
X88812714Y-34744819D02*
X88241286Y-34744819D01*
X88527000Y-34744819D02*
X88527000Y-33744819D01*
X88527000Y-33744819D02*
X88431762Y-33887676D01*
X88431762Y-33887676D02*
X88336524Y-33982914D01*
X88336524Y-33982914D02*
X88241286Y-34030533D01*
X87987333Y-43887819D02*
X87654000Y-43411628D01*
X87415905Y-43887819D02*
X87415905Y-42887819D01*
X87415905Y-42887819D02*
X87796857Y-42887819D01*
X87796857Y-42887819D02*
X87892095Y-42935438D01*
X87892095Y-42935438D02*
X87939714Y-42983057D01*
X87939714Y-42983057D02*
X87987333Y-43078295D01*
X87987333Y-43078295D02*
X87987333Y-43221152D01*
X87987333Y-43221152D02*
X87939714Y-43316390D01*
X87939714Y-43316390D02*
X87892095Y-43364009D01*
X87892095Y-43364009D02*
X87796857Y-43411628D01*
X87796857Y-43411628D02*
X87415905Y-43411628D01*
X88320667Y-42887819D02*
X88939714Y-42887819D01*
X88939714Y-42887819D02*
X88606381Y-43268771D01*
X88606381Y-43268771D02*
X88749238Y-43268771D01*
X88749238Y-43268771D02*
X88844476Y-43316390D01*
X88844476Y-43316390D02*
X88892095Y-43364009D01*
X88892095Y-43364009D02*
X88939714Y-43459247D01*
X88939714Y-43459247D02*
X88939714Y-43697342D01*
X88939714Y-43697342D02*
X88892095Y-43792580D01*
X88892095Y-43792580D02*
X88844476Y-43840200D01*
X88844476Y-43840200D02*
X88749238Y-43887819D01*
X88749238Y-43887819D02*
X88463524Y-43887819D01*
X88463524Y-43887819D02*
X88368286Y-43840200D01*
X88368286Y-43840200D02*
X88320667Y-43792580D01*
X118683833Y-39631580D02*
X118636214Y-39679200D01*
X118636214Y-39679200D02*
X118493357Y-39726819D01*
X118493357Y-39726819D02*
X118398119Y-39726819D01*
X118398119Y-39726819D02*
X118255262Y-39679200D01*
X118255262Y-39679200D02*
X118160024Y-39583961D01*
X118160024Y-39583961D02*
X118112405Y-39488723D01*
X118112405Y-39488723D02*
X118064786Y-39298247D01*
X118064786Y-39298247D02*
X118064786Y-39155390D01*
X118064786Y-39155390D02*
X118112405Y-38964914D01*
X118112405Y-38964914D02*
X118160024Y-38869676D01*
X118160024Y-38869676D02*
X118255262Y-38774438D01*
X118255262Y-38774438D02*
X118398119Y-38726819D01*
X118398119Y-38726819D02*
X118493357Y-38726819D01*
X118493357Y-38726819D02*
X118636214Y-38774438D01*
X118636214Y-38774438D02*
X118683833Y-38822057D01*
X119064786Y-38822057D02*
X119112405Y-38774438D01*
X119112405Y-38774438D02*
X119207643Y-38726819D01*
X119207643Y-38726819D02*
X119445738Y-38726819D01*
X119445738Y-38726819D02*
X119540976Y-38774438D01*
X119540976Y-38774438D02*
X119588595Y-38822057D01*
X119588595Y-38822057D02*
X119636214Y-38917295D01*
X119636214Y-38917295D02*
X119636214Y-39012533D01*
X119636214Y-39012533D02*
X119588595Y-39155390D01*
X119588595Y-39155390D02*
X119017167Y-39726819D01*
X119017167Y-39726819D02*
X119636214Y-39726819D01*
X87860333Y-40966819D02*
X87527000Y-40490628D01*
X87288905Y-40966819D02*
X87288905Y-39966819D01*
X87288905Y-39966819D02*
X87669857Y-39966819D01*
X87669857Y-39966819D02*
X87765095Y-40014438D01*
X87765095Y-40014438D02*
X87812714Y-40062057D01*
X87812714Y-40062057D02*
X87860333Y-40157295D01*
X87860333Y-40157295D02*
X87860333Y-40300152D01*
X87860333Y-40300152D02*
X87812714Y-40395390D01*
X87812714Y-40395390D02*
X87765095Y-40443009D01*
X87765095Y-40443009D02*
X87669857Y-40490628D01*
X87669857Y-40490628D02*
X87288905Y-40490628D01*
X88241286Y-40062057D02*
X88288905Y-40014438D01*
X88288905Y-40014438D02*
X88384143Y-39966819D01*
X88384143Y-39966819D02*
X88622238Y-39966819D01*
X88622238Y-39966819D02*
X88717476Y-40014438D01*
X88717476Y-40014438D02*
X88765095Y-40062057D01*
X88765095Y-40062057D02*
X88812714Y-40157295D01*
X88812714Y-40157295D02*
X88812714Y-40252533D01*
X88812714Y-40252533D02*
X88765095Y-40395390D01*
X88765095Y-40395390D02*
X88193667Y-40966819D01*
X88193667Y-40966819D02*
X88812714Y-40966819D01*
X154051095Y-69161819D02*
X154051095Y-68161819D01*
X154051095Y-68638009D02*
X154622523Y-68638009D01*
X154622523Y-69161819D02*
X154622523Y-68161819D01*
X155003476Y-68161819D02*
X155622523Y-68161819D01*
X155622523Y-68161819D02*
X155289190Y-68542771D01*
X155289190Y-68542771D02*
X155432047Y-68542771D01*
X155432047Y-68542771D02*
X155527285Y-68590390D01*
X155527285Y-68590390D02*
X155574904Y-68638009D01*
X155574904Y-68638009D02*
X155622523Y-68733247D01*
X155622523Y-68733247D02*
X155622523Y-68971342D01*
X155622523Y-68971342D02*
X155574904Y-69066580D01*
X155574904Y-69066580D02*
X155527285Y-69114200D01*
X155527285Y-69114200D02*
X155432047Y-69161819D01*
X155432047Y-69161819D02*
X155146333Y-69161819D01*
X155146333Y-69161819D02*
X155051095Y-69114200D01*
X155051095Y-69114200D02*
X155003476Y-69066580D01*
X118556833Y-41986580D02*
X118509214Y-42034200D01*
X118509214Y-42034200D02*
X118366357Y-42081819D01*
X118366357Y-42081819D02*
X118271119Y-42081819D01*
X118271119Y-42081819D02*
X118128262Y-42034200D01*
X118128262Y-42034200D02*
X118033024Y-41938961D01*
X118033024Y-41938961D02*
X117985405Y-41843723D01*
X117985405Y-41843723D02*
X117937786Y-41653247D01*
X117937786Y-41653247D02*
X117937786Y-41510390D01*
X117937786Y-41510390D02*
X117985405Y-41319914D01*
X117985405Y-41319914D02*
X118033024Y-41224676D01*
X118033024Y-41224676D02*
X118128262Y-41129438D01*
X118128262Y-41129438D02*
X118271119Y-41081819D01*
X118271119Y-41081819D02*
X118366357Y-41081819D01*
X118366357Y-41081819D02*
X118509214Y-41129438D01*
X118509214Y-41129438D02*
X118556833Y-41177057D01*
X119509214Y-42081819D02*
X118937786Y-42081819D01*
X119223500Y-42081819D02*
X119223500Y-41081819D01*
X119223500Y-41081819D02*
X119128262Y-41224676D01*
X119128262Y-41224676D02*
X119033024Y-41319914D01*
X119033024Y-41319914D02*
X118937786Y-41367533D01*
D11*
%TO.C,U3*%
X117734000Y-55003000D02*
G75*
G02*
X117534000Y-55003000I-100000J0D01*
G01*
X117534000Y-55003000D02*
G75*
G02*
X117734000Y-55003000I100000J0D01*
G01*
D12*
X118134000Y-57003000D02*
X118689000Y-57003000D01*
X118134000Y-56953000D02*
X118134000Y-57003000D01*
X121134000Y-57003000D02*
X120579000Y-57003000D01*
X121134000Y-56953000D02*
X121134000Y-57003000D01*
X121134000Y-54503000D02*
X120579000Y-54503000D01*
X121134000Y-54553000D02*
X121134000Y-54503000D01*
X118134000Y-54503000D02*
X118689000Y-54503000D01*
X118134000Y-54553000D02*
X118134000Y-54503000D01*
%TO.C,U2*%
X82811000Y-128372000D02*
X82811000Y-68372000D01*
X82811000Y-68372000D02*
X122811000Y-68372000D01*
X122811000Y-68372000D02*
X122811000Y-128372000D01*
X122811000Y-128372000D02*
X82811000Y-128372000D01*
D11*
X94480000Y-67564000D02*
G75*
G02*
X94280000Y-67564000I-100000J0D01*
G01*
X94280000Y-67564000D02*
G75*
G02*
X94480000Y-67564000I100000J0D01*
G01*
D13*
%TO.C,R1*%
X87799936Y-36676000D02*
X88254064Y-36676000D01*
X87799936Y-35206000D02*
X88254064Y-35206000D01*
%TO.C,R3*%
X88381064Y-41048000D02*
X87926936Y-41048000D01*
X88381064Y-42518000D02*
X87926936Y-42518000D01*
%TO.C,C2*%
X119111752Y-36857000D02*
X118589248Y-36857000D01*
X119111752Y-38327000D02*
X118589248Y-38327000D01*
%TO.C,R2*%
X88254064Y-38127000D02*
X87799936Y-38127000D01*
X88254064Y-39597000D02*
X87799936Y-39597000D01*
%TO.C,C1*%
X118462248Y-42572000D02*
X118984752Y-42572000D01*
X118462248Y-44042000D02*
X118984752Y-44042000D01*
%TO.C,U1*%
X95002000Y-34073000D02*
X94502000Y-34073000D01*
X95002000Y-33573000D01*
X95002000Y-34073000D01*
G36*
X95002000Y-34073000D02*
G01*
X94502000Y-34073000D01*
X95002000Y-33573000D01*
X95002000Y-34073000D01*
G37*
X113247000Y-52928000D02*
X112247000Y-52928000D01*
X113247000Y-52148000D02*
X113247000Y-52928000D01*
X113247000Y-27188000D02*
X113247000Y-33603000D01*
X95007000Y-52928000D02*
X96007000Y-52928000D01*
X95007000Y-52148000D02*
X95007000Y-52928000D01*
X95007000Y-27188000D02*
X113247000Y-27188000D01*
X95007000Y-27188000D02*
X95007000Y-33348000D01*
%TD*%
M02*
