%TF.GenerationSoftware,KiCad,Pcbnew,8.0.8*%
%TF.CreationDate,2025-03-13T01:12:54-05:00*%
%TF.ProjectId,BackTracker,4261636b-5472-4616-936b-65722e6b6963,rev?*%
%TF.SameCoordinates,Original*%
%TF.FileFunction,Profile,NP*%
%FSLAX46Y46*%
G04 Gerber Fmt 4.6, Leading zero omitted, Abs format (unit mm)*
G04 Created by KiCad (PCBNEW 8.0.8) date 2025-03-13 01:12:54*
%MOMM*%
%LPD*%
G01*
G04 APERTURE LIST*
%ADD10C,0.150000*%
%TA.AperFunction,Profile*%
%ADD11C,0.050000*%
%TD*%
G04 APERTURE END LIST*
D10*
X97187262Y-134956819D02*
X96711072Y-134956819D01*
X96711072Y-134956819D02*
X96663453Y-135433009D01*
X96663453Y-135433009D02*
X96711072Y-135385390D01*
X96711072Y-135385390D02*
X96806310Y-135337771D01*
X96806310Y-135337771D02*
X97044405Y-135337771D01*
X97044405Y-135337771D02*
X97139643Y-135385390D01*
X97139643Y-135385390D02*
X97187262Y-135433009D01*
X97187262Y-135433009D02*
X97234881Y-135528247D01*
X97234881Y-135528247D02*
X97234881Y-135766342D01*
X97234881Y-135766342D02*
X97187262Y-135861580D01*
X97187262Y-135861580D02*
X97139643Y-135909200D01*
X97139643Y-135909200D02*
X97044405Y-135956819D01*
X97044405Y-135956819D02*
X96806310Y-135956819D01*
X96806310Y-135956819D02*
X96711072Y-135909200D01*
X96711072Y-135909200D02*
X96663453Y-135861580D01*
X97853929Y-134956819D02*
X97949167Y-134956819D01*
X97949167Y-134956819D02*
X98044405Y-135004438D01*
X98044405Y-135004438D02*
X98092024Y-135052057D01*
X98092024Y-135052057D02*
X98139643Y-135147295D01*
X98139643Y-135147295D02*
X98187262Y-135337771D01*
X98187262Y-135337771D02*
X98187262Y-135575866D01*
X98187262Y-135575866D02*
X98139643Y-135766342D01*
X98139643Y-135766342D02*
X98092024Y-135861580D01*
X98092024Y-135861580D02*
X98044405Y-135909200D01*
X98044405Y-135909200D02*
X97949167Y-135956819D01*
X97949167Y-135956819D02*
X97853929Y-135956819D01*
X97853929Y-135956819D02*
X97758691Y-135909200D01*
X97758691Y-135909200D02*
X97711072Y-135861580D01*
X97711072Y-135861580D02*
X97663453Y-135766342D01*
X97663453Y-135766342D02*
X97615834Y-135575866D01*
X97615834Y-135575866D02*
X97615834Y-135337771D01*
X97615834Y-135337771D02*
X97663453Y-135147295D01*
X97663453Y-135147295D02*
X97711072Y-135052057D01*
X97711072Y-135052057D02*
X97758691Y-135004438D01*
X97758691Y-135004438D02*
X97853929Y-134956819D01*
X98615834Y-135861580D02*
X98663453Y-135909200D01*
X98663453Y-135909200D02*
X98615834Y-135956819D01*
X98615834Y-135956819D02*
X98568215Y-135909200D01*
X98568215Y-135909200D02*
X98615834Y-135861580D01*
X98615834Y-135861580D02*
X98615834Y-135956819D01*
X99139643Y-135956819D02*
X99330119Y-135956819D01*
X99330119Y-135956819D02*
X99425357Y-135909200D01*
X99425357Y-135909200D02*
X99472976Y-135861580D01*
X99472976Y-135861580D02*
X99568214Y-135718723D01*
X99568214Y-135718723D02*
X99615833Y-135528247D01*
X99615833Y-135528247D02*
X99615833Y-135147295D01*
X99615833Y-135147295D02*
X99568214Y-135052057D01*
X99568214Y-135052057D02*
X99520595Y-135004438D01*
X99520595Y-135004438D02*
X99425357Y-134956819D01*
X99425357Y-134956819D02*
X99234881Y-134956819D01*
X99234881Y-134956819D02*
X99139643Y-135004438D01*
X99139643Y-135004438D02*
X99092024Y-135052057D01*
X99092024Y-135052057D02*
X99044405Y-135147295D01*
X99044405Y-135147295D02*
X99044405Y-135385390D01*
X99044405Y-135385390D02*
X99092024Y-135480628D01*
X99092024Y-135480628D02*
X99139643Y-135528247D01*
X99139643Y-135528247D02*
X99234881Y-135575866D01*
X99234881Y-135575866D02*
X99425357Y-135575866D01*
X99425357Y-135575866D02*
X99520595Y-135528247D01*
X99520595Y-135528247D02*
X99568214Y-135480628D01*
X99568214Y-135480628D02*
X99615833Y-135385390D01*
X99996786Y-135052057D02*
X100044405Y-135004438D01*
X100044405Y-135004438D02*
X100139643Y-134956819D01*
X100139643Y-134956819D02*
X100377738Y-134956819D01*
X100377738Y-134956819D02*
X100472976Y-135004438D01*
X100472976Y-135004438D02*
X100520595Y-135052057D01*
X100520595Y-135052057D02*
X100568214Y-135147295D01*
X100568214Y-135147295D02*
X100568214Y-135242533D01*
X100568214Y-135242533D02*
X100520595Y-135385390D01*
X100520595Y-135385390D02*
X99949167Y-135956819D01*
X99949167Y-135956819D02*
X100568214Y-135956819D01*
X100901548Y-134956819D02*
X101568214Y-134956819D01*
X101568214Y-134956819D02*
X101139643Y-135956819D01*
X102139643Y-134956819D02*
X102234881Y-134956819D01*
X102234881Y-134956819D02*
X102330119Y-135004438D01*
X102330119Y-135004438D02*
X102377738Y-135052057D01*
X102377738Y-135052057D02*
X102425357Y-135147295D01*
X102425357Y-135147295D02*
X102472976Y-135337771D01*
X102472976Y-135337771D02*
X102472976Y-135575866D01*
X102472976Y-135575866D02*
X102425357Y-135766342D01*
X102425357Y-135766342D02*
X102377738Y-135861580D01*
X102377738Y-135861580D02*
X102330119Y-135909200D01*
X102330119Y-135909200D02*
X102234881Y-135956819D01*
X102234881Y-135956819D02*
X102139643Y-135956819D01*
X102139643Y-135956819D02*
X102044405Y-135909200D01*
X102044405Y-135909200D02*
X101996786Y-135861580D01*
X101996786Y-135861580D02*
X101949167Y-135766342D01*
X101949167Y-135766342D02*
X101901548Y-135575866D01*
X101901548Y-135575866D02*
X101901548Y-135337771D01*
X101901548Y-135337771D02*
X101949167Y-135147295D01*
X101949167Y-135147295D02*
X101996786Y-135052057D01*
X101996786Y-135052057D02*
X102044405Y-135004438D01*
X102044405Y-135004438D02*
X102139643Y-134956819D01*
X103663453Y-135956819D02*
X103663453Y-135290152D01*
X103663453Y-135385390D02*
X103711072Y-135337771D01*
X103711072Y-135337771D02*
X103806310Y-135290152D01*
X103806310Y-135290152D02*
X103949167Y-135290152D01*
X103949167Y-135290152D02*
X104044405Y-135337771D01*
X104044405Y-135337771D02*
X104092024Y-135433009D01*
X104092024Y-135433009D02*
X104092024Y-135956819D01*
X104092024Y-135433009D02*
X104139643Y-135337771D01*
X104139643Y-135337771D02*
X104234881Y-135290152D01*
X104234881Y-135290152D02*
X104377738Y-135290152D01*
X104377738Y-135290152D02*
X104472977Y-135337771D01*
X104472977Y-135337771D02*
X104520596Y-135433009D01*
X104520596Y-135433009D02*
X104520596Y-135956819D01*
X104996786Y-135956819D02*
X104996786Y-135290152D01*
X104996786Y-135385390D02*
X105044405Y-135337771D01*
X105044405Y-135337771D02*
X105139643Y-135290152D01*
X105139643Y-135290152D02*
X105282500Y-135290152D01*
X105282500Y-135290152D02*
X105377738Y-135337771D01*
X105377738Y-135337771D02*
X105425357Y-135433009D01*
X105425357Y-135433009D02*
X105425357Y-135956819D01*
X105425357Y-135433009D02*
X105472976Y-135337771D01*
X105472976Y-135337771D02*
X105568214Y-135290152D01*
X105568214Y-135290152D02*
X105711071Y-135290152D01*
X105711071Y-135290152D02*
X105806310Y-135337771D01*
X105806310Y-135337771D02*
X105853929Y-135433009D01*
X105853929Y-135433009D02*
X105853929Y-135956819D01*
D11*
X126746000Y-127246000D02*
X126746000Y-137238420D01*
X75819000Y-127246000D02*
X75819000Y-137238420D01*
X126746000Y-136652000D02*
X75819000Y-136652000D01*
X126746000Y-136652000D02*
X75819000Y-136652000D01*
X126746000Y-136652000D02*
X125619496Y-137238421D01*
X126746000Y-136652000D02*
X125619496Y-136065579D01*
X75819000Y-136652000D02*
X76945504Y-136065579D01*
X75819000Y-136652000D02*
X76945504Y-137238421D01*
D10*
X142957819Y-84994165D02*
X142957819Y-84327499D01*
X142957819Y-84327499D02*
X143957819Y-84756070D01*
X142957819Y-84041784D02*
X142957819Y-83422737D01*
X142957819Y-83422737D02*
X143338771Y-83756070D01*
X143338771Y-83756070D02*
X143338771Y-83613213D01*
X143338771Y-83613213D02*
X143386390Y-83517975D01*
X143386390Y-83517975D02*
X143434009Y-83470356D01*
X143434009Y-83470356D02*
X143529247Y-83422737D01*
X143529247Y-83422737D02*
X143767342Y-83422737D01*
X143767342Y-83422737D02*
X143862580Y-83470356D01*
X143862580Y-83470356D02*
X143910200Y-83517975D01*
X143910200Y-83517975D02*
X143957819Y-83613213D01*
X143957819Y-83613213D02*
X143957819Y-83898927D01*
X143957819Y-83898927D02*
X143910200Y-83994165D01*
X143910200Y-83994165D02*
X143862580Y-84041784D01*
X143862580Y-82994165D02*
X143910200Y-82946546D01*
X143910200Y-82946546D02*
X143957819Y-82994165D01*
X143957819Y-82994165D02*
X143910200Y-83041784D01*
X143910200Y-83041784D02*
X143862580Y-82994165D01*
X143862580Y-82994165D02*
X143957819Y-82994165D01*
X142957819Y-82613213D02*
X142957819Y-81946547D01*
X142957819Y-81946547D02*
X143957819Y-82375118D01*
X143386390Y-81422737D02*
X143338771Y-81517975D01*
X143338771Y-81517975D02*
X143291152Y-81565594D01*
X143291152Y-81565594D02*
X143195914Y-81613213D01*
X143195914Y-81613213D02*
X143148295Y-81613213D01*
X143148295Y-81613213D02*
X143053057Y-81565594D01*
X143053057Y-81565594D02*
X143005438Y-81517975D01*
X143005438Y-81517975D02*
X142957819Y-81422737D01*
X142957819Y-81422737D02*
X142957819Y-81232261D01*
X142957819Y-81232261D02*
X143005438Y-81137023D01*
X143005438Y-81137023D02*
X143053057Y-81089404D01*
X143053057Y-81089404D02*
X143148295Y-81041785D01*
X143148295Y-81041785D02*
X143195914Y-81041785D01*
X143195914Y-81041785D02*
X143291152Y-81089404D01*
X143291152Y-81089404D02*
X143338771Y-81137023D01*
X143338771Y-81137023D02*
X143386390Y-81232261D01*
X143386390Y-81232261D02*
X143386390Y-81422737D01*
X143386390Y-81422737D02*
X143434009Y-81517975D01*
X143434009Y-81517975D02*
X143481628Y-81565594D01*
X143481628Y-81565594D02*
X143576866Y-81613213D01*
X143576866Y-81613213D02*
X143767342Y-81613213D01*
X143767342Y-81613213D02*
X143862580Y-81565594D01*
X143862580Y-81565594D02*
X143910200Y-81517975D01*
X143910200Y-81517975D02*
X143957819Y-81422737D01*
X143957819Y-81422737D02*
X143957819Y-81232261D01*
X143957819Y-81232261D02*
X143910200Y-81137023D01*
X143910200Y-81137023D02*
X143862580Y-81089404D01*
X143862580Y-81089404D02*
X143767342Y-81041785D01*
X143767342Y-81041785D02*
X143576866Y-81041785D01*
X143576866Y-81041785D02*
X143481628Y-81089404D01*
X143481628Y-81089404D02*
X143434009Y-81137023D01*
X143434009Y-81137023D02*
X143386390Y-81232261D01*
X142957819Y-80708451D02*
X142957819Y-80041785D01*
X142957819Y-80041785D02*
X143957819Y-80470356D01*
X142957819Y-79470356D02*
X142957819Y-79375118D01*
X142957819Y-79375118D02*
X143005438Y-79279880D01*
X143005438Y-79279880D02*
X143053057Y-79232261D01*
X143053057Y-79232261D02*
X143148295Y-79184642D01*
X143148295Y-79184642D02*
X143338771Y-79137023D01*
X143338771Y-79137023D02*
X143576866Y-79137023D01*
X143576866Y-79137023D02*
X143767342Y-79184642D01*
X143767342Y-79184642D02*
X143862580Y-79232261D01*
X143862580Y-79232261D02*
X143910200Y-79279880D01*
X143910200Y-79279880D02*
X143957819Y-79375118D01*
X143957819Y-79375118D02*
X143957819Y-79470356D01*
X143957819Y-79470356D02*
X143910200Y-79565594D01*
X143910200Y-79565594D02*
X143862580Y-79613213D01*
X143862580Y-79613213D02*
X143767342Y-79660832D01*
X143767342Y-79660832D02*
X143576866Y-79708451D01*
X143576866Y-79708451D02*
X143338771Y-79708451D01*
X143338771Y-79708451D02*
X143148295Y-79660832D01*
X143148295Y-79660832D02*
X143053057Y-79613213D01*
X143053057Y-79613213D02*
X143005438Y-79565594D01*
X143005438Y-79565594D02*
X142957819Y-79470356D01*
X143957819Y-77946546D02*
X143291152Y-77946546D01*
X143386390Y-77946546D02*
X143338771Y-77898927D01*
X143338771Y-77898927D02*
X143291152Y-77803689D01*
X143291152Y-77803689D02*
X143291152Y-77660832D01*
X143291152Y-77660832D02*
X143338771Y-77565594D01*
X143338771Y-77565594D02*
X143434009Y-77517975D01*
X143434009Y-77517975D02*
X143957819Y-77517975D01*
X143434009Y-77517975D02*
X143338771Y-77470356D01*
X143338771Y-77470356D02*
X143291152Y-77375118D01*
X143291152Y-77375118D02*
X143291152Y-77232261D01*
X143291152Y-77232261D02*
X143338771Y-77137022D01*
X143338771Y-77137022D02*
X143434009Y-77089403D01*
X143434009Y-77089403D02*
X143957819Y-77089403D01*
X143957819Y-76613213D02*
X143291152Y-76613213D01*
X143386390Y-76613213D02*
X143338771Y-76565594D01*
X143338771Y-76565594D02*
X143291152Y-76470356D01*
X143291152Y-76470356D02*
X143291152Y-76327499D01*
X143291152Y-76327499D02*
X143338771Y-76232261D01*
X143338771Y-76232261D02*
X143434009Y-76184642D01*
X143434009Y-76184642D02*
X143957819Y-76184642D01*
X143434009Y-76184642D02*
X143338771Y-76137023D01*
X143338771Y-76137023D02*
X143291152Y-76041785D01*
X143291152Y-76041785D02*
X143291152Y-75898928D01*
X143291152Y-75898928D02*
X143338771Y-75803689D01*
X143338771Y-75803689D02*
X143434009Y-75756070D01*
X143434009Y-75756070D02*
X143957819Y-75756070D01*
D11*
X127246000Y-43434000D02*
X145239420Y-43434000D01*
X127246000Y-117221000D02*
X145239420Y-117221000D01*
X144653000Y-43434000D02*
X144653000Y-117221000D01*
X144653000Y-43434000D02*
X144653000Y-117221000D01*
X144653000Y-43434000D02*
X145239421Y-44560504D01*
X144653000Y-43434000D02*
X144066579Y-44560504D01*
X144653000Y-117221000D02*
X144066579Y-116094496D01*
X144653000Y-117221000D02*
X145239421Y-116094496D01*
X71649500Y-30099000D02*
X130683000Y-30099000D01*
X130683000Y-131572000D01*
X71649500Y-131572000D01*
X71649500Y-30099000D01*
M02*
