%TF.GenerationSoftware,KiCad,Pcbnew,8.0.8*%
%TF.CreationDate,2025-03-13T01:14:28-05:00*%
%TF.ProjectId,BackTracker,4261636b-5472-4616-936b-65722e6b6963,rev?*%
%TF.SameCoordinates,Original*%
%TF.FileFunction,Soldermask,Top*%
%TF.FilePolarity,Negative*%
%FSLAX46Y46*%
G04 Gerber Fmt 4.6, Leading zero omitted, Abs format (unit mm)*
G04 Created by KiCad (PCBNEW 8.0.8) date 2025-03-13 01:14:28*
%MOMM*%
%LPD*%
G01*
G04 APERTURE LIST*
G04 Aperture macros list*
%AMRoundRect*
0 Rectangle with rounded corners*
0 $1 Rounding radius*
0 $2 $3 $4 $5 $6 $7 $8 $9 X,Y pos of 4 corners*
0 Add a 4 corners polygon primitive as box body*
4,1,4,$2,$3,$4,$5,$6,$7,$8,$9,$2,$3,0*
0 Add four circle primitives for the rounded corners*
1,1,$1+$1,$2,$3*
1,1,$1+$1,$4,$5*
1,1,$1+$1,$6,$7*
1,1,$1+$1,$8,$9*
0 Add four rect primitives between the rounded corners*
20,1,$1+$1,$2,$3,$4,$5,0*
20,1,$1+$1,$4,$5,$6,$7,0*
20,1,$1+$1,$6,$7,$8,$9,0*
20,1,$1+$1,$8,$9,$2,$3,0*%
G04 Aperture macros list end*
%ADD10C,0.010000*%
%ADD11C,3.200000*%
%ADD12RoundRect,0.102000X-0.862500X-0.862500X0.862500X-0.862500X0.862500X0.862500X-0.862500X0.862500X0*%
%ADD13C,1.929000*%
%ADD14C,2.500000*%
%ADD15RoundRect,0.250000X-0.350000X-0.450000X0.350000X-0.450000X0.350000X0.450000X-0.350000X0.450000X0*%
%ADD16RoundRect,0.250000X0.350000X0.450000X-0.350000X0.450000X-0.350000X-0.450000X0.350000X-0.450000X0*%
%ADD17RoundRect,0.250000X0.337500X0.475000X-0.337500X0.475000X-0.337500X-0.475000X0.337500X-0.475000X0*%
%ADD18RoundRect,0.250000X-0.337500X-0.475000X0.337500X-0.475000X0.337500X0.475000X-0.337500X0.475000X0*%
%ADD19C,0.600000*%
%ADD20R,3.800000X3.800000*%
%ADD21R,1.500000X0.900000*%
%ADD22R,0.900000X1.500000*%
G04 APERTURE END LIST*
D10*
%TO.C,U3*%
X119309000Y-55128000D02*
X118959000Y-55128000D01*
X118959000Y-54553000D01*
X119309000Y-54553000D01*
X119309000Y-55128000D01*
G36*
X119309000Y-55128000D02*
G01*
X118959000Y-55128000D01*
X118959000Y-54553000D01*
X119309000Y-54553000D01*
X119309000Y-55128000D01*
G37*
X119809000Y-55128000D02*
X119459000Y-55128000D01*
X119459000Y-54553000D01*
X119809000Y-54553000D01*
X119809000Y-55128000D01*
G36*
X119809000Y-55128000D02*
G01*
X119459000Y-55128000D01*
X119459000Y-54553000D01*
X119809000Y-54553000D01*
X119809000Y-55128000D01*
G37*
X120309000Y-55128000D02*
X119959000Y-55128000D01*
X119959000Y-54553000D01*
X120309000Y-54553000D01*
X120309000Y-55128000D01*
G36*
X120309000Y-55128000D02*
G01*
X119959000Y-55128000D01*
X119959000Y-54553000D01*
X120309000Y-54553000D01*
X120309000Y-55128000D01*
G37*
X121084000Y-55178000D02*
X120509000Y-55178000D01*
X120509000Y-54828000D01*
X121084000Y-54828000D01*
X121084000Y-55178000D01*
G36*
X121084000Y-55178000D02*
G01*
X120509000Y-55178000D01*
X120509000Y-54828000D01*
X121084000Y-54828000D01*
X121084000Y-55178000D01*
G37*
X121084000Y-55678000D02*
X120509000Y-55678000D01*
X120509000Y-55328000D01*
X121084000Y-55328000D01*
X121084000Y-55678000D01*
G36*
X121084000Y-55678000D02*
G01*
X120509000Y-55678000D01*
X120509000Y-55328000D01*
X121084000Y-55328000D01*
X121084000Y-55678000D01*
G37*
X121084000Y-56178000D02*
X120509000Y-56178000D01*
X120509000Y-55828000D01*
X121084000Y-55828000D01*
X121084000Y-56178000D01*
G36*
X121084000Y-56178000D02*
G01*
X120509000Y-56178000D01*
X120509000Y-55828000D01*
X121084000Y-55828000D01*
X121084000Y-56178000D01*
G37*
X121084000Y-56678000D02*
X120509000Y-56678000D01*
X120509000Y-56328000D01*
X121084000Y-56328000D01*
X121084000Y-56678000D01*
G36*
X121084000Y-56678000D02*
G01*
X120509000Y-56678000D01*
X120509000Y-56328000D01*
X121084000Y-56328000D01*
X121084000Y-56678000D01*
G37*
X120309000Y-56953000D02*
X119959000Y-56953000D01*
X119959000Y-56378000D01*
X120309000Y-56378000D01*
X120309000Y-56953000D01*
G36*
X120309000Y-56953000D02*
G01*
X119959000Y-56953000D01*
X119959000Y-56378000D01*
X120309000Y-56378000D01*
X120309000Y-56953000D01*
G37*
X119809000Y-56953000D02*
X119459000Y-56953000D01*
X119459000Y-56378000D01*
X119809000Y-56378000D01*
X119809000Y-56953000D01*
G36*
X119809000Y-56953000D02*
G01*
X119459000Y-56953000D01*
X119459000Y-56378000D01*
X119809000Y-56378000D01*
X119809000Y-56953000D01*
G37*
X119309000Y-56953000D02*
X118959000Y-56953000D01*
X118959000Y-56378000D01*
X119309000Y-56378000D01*
X119309000Y-56953000D01*
G36*
X119309000Y-56953000D02*
G01*
X118959000Y-56953000D01*
X118959000Y-56378000D01*
X119309000Y-56378000D01*
X119309000Y-56953000D01*
G37*
X118759000Y-56678000D02*
X118184000Y-56678000D01*
X118184000Y-56328000D01*
X118759000Y-56328000D01*
X118759000Y-56678000D01*
G36*
X118759000Y-56678000D02*
G01*
X118184000Y-56678000D01*
X118184000Y-56328000D01*
X118759000Y-56328000D01*
X118759000Y-56678000D01*
G37*
X118759000Y-56178000D02*
X118184000Y-56178000D01*
X118184000Y-55828000D01*
X118759000Y-55828000D01*
X118759000Y-56178000D01*
G36*
X118759000Y-56178000D02*
G01*
X118184000Y-56178000D01*
X118184000Y-55828000D01*
X118759000Y-55828000D01*
X118759000Y-56178000D01*
G37*
X118759000Y-55678000D02*
X118184000Y-55678000D01*
X118184000Y-55328000D01*
X118759000Y-55328000D01*
X118759000Y-55678000D01*
G36*
X118759000Y-55678000D02*
G01*
X118184000Y-55678000D01*
X118184000Y-55328000D01*
X118759000Y-55328000D01*
X118759000Y-55678000D01*
G37*
X118759000Y-55178000D02*
X118184000Y-55178000D01*
X118184000Y-54828000D01*
X118759000Y-54828000D01*
X118759000Y-55178000D01*
G36*
X118759000Y-55178000D02*
G01*
X118184000Y-55178000D01*
X118184000Y-54828000D01*
X118759000Y-54828000D01*
X118759000Y-55178000D01*
G37*
%TD*%
D11*
%TO.C,H1*%
X75819000Y-43434000D03*
%TD*%
%TO.C,H4*%
X75819000Y-126746000D03*
%TD*%
D12*
%TO.C,U2*%
X94361000Y-70612000D03*
D13*
X96901000Y-70612000D03*
X99441000Y-70612000D03*
X101981000Y-70612000D03*
X104521000Y-70612000D03*
X107061000Y-70612000D03*
X109601000Y-70612000D03*
X112141000Y-70612000D03*
D14*
X88811000Y-122372000D03*
X116811000Y-122372000D03*
X85311000Y-84372000D03*
X120311000Y-84372000D03*
%TD*%
D11*
%TO.C,H1*%
X126746000Y-43434000D03*
%TD*%
D15*
%TO.C,R1*%
X89027000Y-35941000D03*
X87027000Y-35941000D03*
%TD*%
D16*
%TO.C,R3*%
X87154000Y-41783000D03*
X89154000Y-41783000D03*
%TD*%
D11*
%TO.C,H4*%
X126746000Y-126746000D03*
%TD*%
D17*
%TO.C,C2*%
X117813000Y-37592000D03*
X119888000Y-37592000D03*
%TD*%
D16*
%TO.C,R2*%
X87027000Y-38862000D03*
X89027000Y-38862000D03*
%TD*%
D11*
%TO.C,H3*%
X154940000Y-68605000D03*
%TD*%
D18*
%TO.C,C1*%
X117686000Y-43307000D03*
X119761000Y-43307000D03*
%TD*%
D19*
%TO.C,U1*%
X104027000Y-43218000D03*
X104027000Y-41818000D03*
X103327000Y-43918000D03*
X103327000Y-42518000D03*
X103327000Y-41118000D03*
D20*
X102627000Y-42518000D03*
D19*
X102602000Y-43218000D03*
X102602000Y-41818000D03*
X101927000Y-43918000D03*
X101927000Y-42518000D03*
X101927000Y-41118000D03*
X101227000Y-43218000D03*
X101227000Y-41818000D03*
D21*
X112877000Y-34798000D03*
X112877000Y-36068000D03*
X112877000Y-37338000D03*
X112877000Y-38608000D03*
X112877000Y-39878000D03*
X112877000Y-41148000D03*
X112877000Y-42418000D03*
X112877000Y-43688000D03*
X112877000Y-44958000D03*
X112877000Y-46228000D03*
X112877000Y-47498000D03*
X112877000Y-48768000D03*
X112877000Y-50038000D03*
X112877000Y-51308000D03*
D22*
X109847000Y-52558000D03*
X108577000Y-52558000D03*
X107307000Y-52558000D03*
X106037000Y-52558000D03*
X104767000Y-52558000D03*
X103497000Y-52558000D03*
X102227000Y-52558000D03*
X100957000Y-52558000D03*
X99687000Y-52558000D03*
X98417000Y-52558000D03*
D21*
X95377000Y-51308000D03*
X95377000Y-50038000D03*
X95377000Y-48768000D03*
X95377000Y-47498000D03*
X95377000Y-46228000D03*
X95377000Y-44958000D03*
X95377000Y-43688000D03*
X95377000Y-42418000D03*
X95377000Y-41148000D03*
X95377000Y-39878000D03*
X95377000Y-38608000D03*
X95377000Y-37338000D03*
X95377000Y-36068000D03*
X95377000Y-34798000D03*
%TD*%
M02*
