%TF.GenerationSoftware,KiCad,Pcbnew,8.0.8*%
%TF.CreationDate,2025-03-13T01:14:28-05:00*%
%TF.ProjectId,BackTracker,4261636b-5472-4616-936b-65722e6b6963,rev?*%
%TF.SameCoordinates,Original*%
%TF.FileFunction,Paste,Top*%
%TF.FilePolarity,Positive*%
%FSLAX46Y46*%
G04 Gerber Fmt 4.6, Leading zero omitted, Abs format (unit mm)*
G04 Created by KiCad (PCBNEW 8.0.8) date 2025-03-13 01:14:28*
%MOMM*%
%LPD*%
G01*
G04 APERTURE LIST*
G04 Aperture macros list*
%AMRoundRect*
0 Rectangle with rounded corners*
0 $1 Rounding radius*
0 $2 $3 $4 $5 $6 $7 $8 $9 X,Y pos of 4 corners*
0 Add a 4 corners polygon primitive as box body*
4,1,4,$2,$3,$4,$5,$6,$7,$8,$9,$2,$3,0*
0 Add four circle primitives for the rounded corners*
1,1,$1+$1,$2,$3*
1,1,$1+$1,$4,$5*
1,1,$1+$1,$6,$7*
1,1,$1+$1,$8,$9*
0 Add four rect primitives between the rounded corners*
20,1,$1+$1,$2,$3,$4,$5,0*
20,1,$1+$1,$4,$5,$6,$7,0*
20,1,$1+$1,$6,$7,$8,$9,0*
20,1,$1+$1,$8,$9,$2,$3,0*%
G04 Aperture macros list end*
%ADD10C,0.010000*%
%ADD11RoundRect,0.250000X-0.350000X-0.450000X0.350000X-0.450000X0.350000X0.450000X-0.350000X0.450000X0*%
%ADD12RoundRect,0.250000X0.350000X0.450000X-0.350000X0.450000X-0.350000X-0.450000X0.350000X-0.450000X0*%
%ADD13RoundRect,0.250000X0.337500X0.475000X-0.337500X0.475000X-0.337500X-0.475000X0.337500X-0.475000X0*%
%ADD14RoundRect,0.250000X-0.337500X-0.475000X0.337500X-0.475000X0.337500X0.475000X-0.337500X0.475000X0*%
%ADD15R,0.900000X0.900000*%
%ADD16R,1.500000X0.900000*%
%ADD17R,0.900000X1.500000*%
G04 APERTURE END LIST*
D10*
%TO.C,U3*%
X119253000Y-55065500D02*
X119015000Y-55065500D01*
X119015000Y-54615500D01*
X119253000Y-54615500D01*
X119253000Y-55065500D01*
G36*
X119253000Y-55065500D02*
G01*
X119015000Y-55065500D01*
X119015000Y-54615500D01*
X119253000Y-54615500D01*
X119253000Y-55065500D01*
G37*
X120253000Y-55065500D02*
X120015000Y-55065500D01*
X120015000Y-54615500D01*
X120253000Y-54615500D01*
X120253000Y-55065500D01*
G36*
X120253000Y-55065500D02*
G01*
X120015000Y-55065500D01*
X120015000Y-54615500D01*
X120253000Y-54615500D01*
X120253000Y-55065500D01*
G37*
X121021500Y-55122000D02*
X120571500Y-55122000D01*
X120571500Y-54884000D01*
X121021500Y-54884000D01*
X121021500Y-55122000D01*
G36*
X121021500Y-55122000D02*
G01*
X120571500Y-55122000D01*
X120571500Y-54884000D01*
X121021500Y-54884000D01*
X121021500Y-55122000D01*
G37*
X121021500Y-55622000D02*
X120571500Y-55622000D01*
X120571500Y-55384000D01*
X121021500Y-55384000D01*
X121021500Y-55622000D01*
G36*
X121021500Y-55622000D02*
G01*
X120571500Y-55622000D01*
X120571500Y-55384000D01*
X121021500Y-55384000D01*
X121021500Y-55622000D01*
G37*
X121021500Y-56122000D02*
X120571500Y-56122000D01*
X120571500Y-55884000D01*
X121021500Y-55884000D01*
X121021500Y-56122000D01*
G36*
X121021500Y-56122000D02*
G01*
X120571500Y-56122000D01*
X120571500Y-55884000D01*
X121021500Y-55884000D01*
X121021500Y-56122000D01*
G37*
X121021500Y-56622000D02*
X120571500Y-56622000D01*
X120571500Y-56384000D01*
X121021500Y-56384000D01*
X121021500Y-56622000D01*
G36*
X121021500Y-56622000D02*
G01*
X120571500Y-56622000D01*
X120571500Y-56384000D01*
X121021500Y-56384000D01*
X121021500Y-56622000D01*
G37*
X119753000Y-55065500D02*
X119515000Y-55065500D01*
X119515000Y-54615500D01*
X119753000Y-54615500D01*
X119753000Y-55065500D01*
G36*
X119753000Y-55065500D02*
G01*
X119515000Y-55065500D01*
X119515000Y-54615500D01*
X119753000Y-54615500D01*
X119753000Y-55065500D01*
G37*
X120253000Y-56890500D02*
X120015000Y-56890500D01*
X120015000Y-56440500D01*
X120253000Y-56440500D01*
X120253000Y-56890500D01*
G36*
X120253000Y-56890500D02*
G01*
X120015000Y-56890500D01*
X120015000Y-56440500D01*
X120253000Y-56440500D01*
X120253000Y-56890500D01*
G37*
X119253000Y-56890500D02*
X119015000Y-56890500D01*
X119015000Y-56440500D01*
X119253000Y-56440500D01*
X119253000Y-56890500D01*
G36*
X119253000Y-56890500D02*
G01*
X119015000Y-56890500D01*
X119015000Y-56440500D01*
X119253000Y-56440500D01*
X119253000Y-56890500D01*
G37*
X118696500Y-56622000D02*
X118246500Y-56622000D01*
X118246500Y-56384000D01*
X118696500Y-56384000D01*
X118696500Y-56622000D01*
G36*
X118696500Y-56622000D02*
G01*
X118246500Y-56622000D01*
X118246500Y-56384000D01*
X118696500Y-56384000D01*
X118696500Y-56622000D01*
G37*
X118696500Y-56122000D02*
X118246500Y-56122000D01*
X118246500Y-55884000D01*
X118696500Y-55884000D01*
X118696500Y-56122000D01*
G36*
X118696500Y-56122000D02*
G01*
X118246500Y-56122000D01*
X118246500Y-55884000D01*
X118696500Y-55884000D01*
X118696500Y-56122000D01*
G37*
X118696500Y-55622000D02*
X118246500Y-55622000D01*
X118246500Y-55384000D01*
X118696500Y-55384000D01*
X118696500Y-55622000D01*
G36*
X118696500Y-55622000D02*
G01*
X118246500Y-55622000D01*
X118246500Y-55384000D01*
X118696500Y-55384000D01*
X118696500Y-55622000D01*
G37*
X118696500Y-55122000D02*
X118246500Y-55122000D01*
X118246500Y-54884000D01*
X118696500Y-54884000D01*
X118696500Y-55122000D01*
G36*
X118696500Y-55122000D02*
G01*
X118246500Y-55122000D01*
X118246500Y-54884000D01*
X118696500Y-54884000D01*
X118696500Y-55122000D01*
G37*
X119753000Y-56890500D02*
X119515000Y-56890500D01*
X119515000Y-56440500D01*
X119753000Y-56440500D01*
X119753000Y-56890500D01*
G36*
X119753000Y-56890500D02*
G01*
X119515000Y-56890500D01*
X119515000Y-56440500D01*
X119753000Y-56440500D01*
X119753000Y-56890500D01*
G37*
%TD*%
D11*
%TO.C,R1*%
X89027000Y-35941000D03*
X87027000Y-35941000D03*
%TD*%
D12*
%TO.C,R3*%
X87154000Y-41783000D03*
X89154000Y-41783000D03*
%TD*%
D13*
%TO.C,C2*%
X117813000Y-37592000D03*
X119888000Y-37592000D03*
%TD*%
D12*
%TO.C,R2*%
X87027000Y-38862000D03*
X89027000Y-38862000D03*
%TD*%
D14*
%TO.C,C1*%
X117686000Y-43307000D03*
X119761000Y-43307000D03*
%TD*%
D15*
%TO.C,U1*%
X104027000Y-43918000D03*
X104027000Y-42518000D03*
X104027000Y-41118000D03*
X102627000Y-43918000D03*
X102627000Y-42518000D03*
X102627000Y-41118000D03*
X101227000Y-43918000D03*
X101227000Y-42518000D03*
X101227000Y-41118000D03*
D16*
X112877000Y-34798000D03*
X112877000Y-36068000D03*
X112877000Y-37338000D03*
X112877000Y-38608000D03*
X112877000Y-39878000D03*
X112877000Y-41148000D03*
X112877000Y-42418000D03*
X112877000Y-43688000D03*
X112877000Y-44958000D03*
X112877000Y-46228000D03*
X112877000Y-47498000D03*
X112877000Y-48768000D03*
X112877000Y-50038000D03*
X112877000Y-51308000D03*
D17*
X109847000Y-52558000D03*
X108577000Y-52558000D03*
X107307000Y-52558000D03*
X106037000Y-52558000D03*
X104767000Y-52558000D03*
X103497000Y-52558000D03*
X102227000Y-52558000D03*
X100957000Y-52558000D03*
X99687000Y-52558000D03*
X98417000Y-52558000D03*
D16*
X95377000Y-51308000D03*
X95377000Y-50038000D03*
X95377000Y-48768000D03*
X95377000Y-47498000D03*
X95377000Y-46228000D03*
X95377000Y-44958000D03*
X95377000Y-43688000D03*
X95377000Y-42418000D03*
X95377000Y-41148000D03*
X95377000Y-39878000D03*
X95377000Y-38608000D03*
X95377000Y-37338000D03*
X95377000Y-36068000D03*
X95377000Y-34798000D03*
%TD*%
M02*
